<svg width="71" height="18" viewBox="0 0 71 18" fill="none" xmlns="http://www.w3.org/2000/svg">
<path d="M9.672 17.464H15.6L14.448 16.312V1.288C14.832 0.904 15.168 0.519999 15.552 0.136H15.504H11.064C10.944 0.136 10.896 0.183999 10.872 0.303999C10.752 0.735999 10.632 1.144 10.512 1.576C9.672 4.384 8.856 7.192 8.016 10C7.968 10.192 7.896 10.384 7.848 10.576C7.824 10.528 7.8 10.504 7.8 10.48C7.224 8.632 6.624 6.808 6.072 4.96C5.592 3.424 5.16 1.84 4.68 0.279999C4.656 0.159999 4.632 0.136 4.464 0.136H0.264H0.144L1.296 1.288V16.36C0.936 16.72 0.576 17.104 0.192 17.488H5.928C5.52 17.08 5.16 16.696 4.776 16.312V8.224C5.784 11.296 6.816 14.392 7.824 17.488C8.832 14.368 9.816 11.272 10.824 8.2H10.848V16.288L9.672 17.464ZM26.1519 17.464H30.4719L30.4479 17.44L29.1519 16.288C29.0559 16.192 28.9119 16.072 28.8399 15.952C27.5919 13.864 26.3679 11.752 25.1199 9.64C24.7599 9.04 24.4239 8.44 24.0639 7.84C24.0639 7.816 24.0879 7.792 24.0879 7.768L28.1919 1.576C28.2159 1.528 28.2639 1.504 28.3119 1.48C28.9359 1.048 29.5839 0.639999 30.2319 0.207999C30.2559 0.183999 30.2799 0.159999 30.3279 0.136H24.2319C24.4959 0.519999 24.7359 0.904 24.9759 1.288C23.6079 3.352 22.2399 5.44 20.8719 7.504H20.8479V1.312C21.2319 0.904 21.5919 0.519999 21.9759 0.136H16.3359C16.6959 0.519999 17.0799 0.927999 17.4639 1.336V16.336L16.3359 17.464H22.0239C21.6159 17.056 21.2319 16.696 20.8479 16.312V16.24V12.76C20.8479 12.712 20.8719 12.64 20.8959 12.592C21.2079 12.136 21.4959 11.68 21.8079 11.224C21.9279 11.056 22.0479 10.888 22.1679 10.696C23.5119 12.952 24.8319 15.208 26.1519 17.464ZM41.265 13.144H45.345C45.657 14.272 45.993 15.4 46.305 16.528C45.993 16.84 45.729 17.152 45.417 17.464H50.769C50.721 17.416 50.673 17.392 50.649 17.368C50.217 16.96 49.833 16.552 49.401 16.144C49.329 16.072 49.257 16 49.233 15.904C47.865 11.104 46.497 6.328 45.129 1.528C45.105 1.456 45.081 1.36 45.057 1.288L46.137 0.136H40.593C40.929 0.543999 41.265 0.927999 41.601 1.312C41.601 1.336 41.577 1.384 41.577 1.408C41.145 2.872 40.737 4.312 40.305 5.776C39.321 9.184 38.313 12.544 37.329 15.952C37.329 16 37.281 16.048 37.233 16.096C36.801 16.528 36.417 16.96 35.985 17.392C35.961 17.416 35.913 17.44 35.889 17.464H41.193L41.217 17.44C40.905 17.152 40.617 16.84 40.305 16.552C40.641 15.4 40.953 14.272 41.265 13.144ZM43.329 5.944C43.833 7.696 44.313 9.472 44.817 11.248H41.817C42.321 9.472 42.801 7.696 43.305 5.944H43.329ZM51.5514 17.464H57.3834C56.9994 17.08 56.5914 16.696 56.2074 16.312V10.336H56.3514C57.9834 10.336 59.6394 10.36 61.2714 10.36C61.4394 10.36 61.6314 10.336 61.7994 10.312C62.5674 10.168 63.3114 9.568 63.3114 8.536C63.2874 6.232 63.2874 3.928 63.2874 1.624V1.48C63.2634 0.927999 62.9274 0.448 62.3994 0.279999C62.1114 0.183999 61.8234 0.136 61.5114 0.136H51.6714H51.5754C51.9594 0.543999 52.3434 0.927999 52.7274 1.312V16.336C52.3434 16.696 51.9594 17.056 51.5514 17.464ZM56.2074 8.392V2.056H56.3034H59.2074C59.3754 2.056 59.5674 2.104 59.7114 2.2C59.8314 2.296 59.9274 2.44 59.9274 2.608V2.752V7.816C59.9274 8.248 59.7594 8.392 59.3514 8.392H56.3274H56.2074ZM64.629 17.464H70.317C69.933 17.08 69.573 16.696 69.189 16.288V1.336C69.597 0.904 69.957 0.519999 70.317 0.136H64.629C65.013 0.519999 65.397 0.927999 65.781 1.312V16.288C65.397 16.672 65.013 17.056 64.629 17.464Z" fill="#FDA90F"/>
</svg>
